# xmcd
#
# Track frame offsets: 
#        150
#        23722
#        38330
#        53327
#        69777
#        96255
#        125330
#        149945
#        166615
#        186065
#        202612
#        227265
#
# Disc length: 3440 seconds
#
# Revision: 2
# Processed by: cddbd v1.5.1PL0 Copyright (c) Steve Scherf et al.
# Submitted via: ExactAudioCopy v0.95b1
#
DISCID=860d6e0c
DTITLE=Carlinhos Felix - Ao Vivo
DYEAR=1900
DGENRE=Gospel and Religious
TTITLE0=Você Precisa de Deus
TTITLE1=Pescador
TTITLE2=Basta Querer
TTITLE3=Ponto a Ponto
TTITLE4=Palácios
TTITLE5=Senhor do Universo
TTITLE6=Grande é o Senhor
TTITLE7=Santo
TTITLE8=Diga Lá
TTITLE9=Ele é Meu Senhor
TTITLE10=Espírito do Senhor
TTITLE11=O Autor da Minha Fé
EXTD=
EXTT0=
EXTT1=
EXTT2=
EXTT3=
EXTT4=
EXTT5=
EXTT6=
EXTT7=
EXTT8=
EXTT9=
EXTT10=
EXTT11=
PLAYORDER=
